<mxfile host="app.diagrams.net" agent="Mozilla/5.0 (Windows NT 10.0; Win64; x64) AppleWebKit/537.36 (KHTML, like Gecko) Chrome/136.0.0.0 Safari/537.36 Edg/136.0.0.0" version="26.2.15">
  <diagram name="Page-1" id="52a04d89-c75d-2922-d76d-85b35f80e030">
    <mxGraphModel dx="2068" dy="-2824" grid="0" gridSize="10" guides="0" tooltips="1" connect="1" arrows="1" fold="1" page="0" pageScale="1" pageWidth="1400" pageHeight="850" background="none" math="0" shadow="0">
      <root>
        <mxCell id="0" />
        <mxCell id="1" parent="0" />
        <mxCell id="AOLd8nBtHAA1P6w7lScT-36" value="" style="group;rounded=0;labelBackgroundColor=none;" vertex="1" connectable="0" parent="1">
          <mxGeometry x="230" y="4030" width="1490" height="970" as="geometry" />
        </mxCell>
        <mxCell id="BtkpZdqmRStXKEmJAE4n-21" value="" style="group;container=0;strokeWidth=0;strokeColor=none;fontSize=12;labelBackgroundColor=none;rounded=0;" parent="AOLd8nBtHAA1P6w7lScT-36" vertex="1" connectable="0">
          <mxGeometry x="56" width="1435.5" height="814" as="geometry" />
        </mxCell>
        <mxCell id="_GfdGtISQYKUp6_XVA1W-74" value="Input: 3×640×640" style="whiteSpace=wrap;strokeWidth=2;labelBackgroundColor=none;rounded=0;shadow=0;fontSize=16;fontFamily=Verdana;fixDash=0;snapToPoint=0;backgroundOutline=0;" parent="AOLd8nBtHAA1P6w7lScT-36" vertex="1">
          <mxGeometry x="121" y="1" width="183" height="54" as="geometry" />
        </mxCell>
        <mxCell id="_GfdGtISQYKUp6_XVA1W-75" value="stem: 3→8, s=2" style="whiteSpace=wrap;strokeWidth=2;labelBackgroundColor=none;rounded=0;shadow=0;fontSize=16;fontFamily=Verdana;fixDash=0;snapToPoint=0;backgroundOutline=0;" parent="AOLd8nBtHAA1P6w7lScT-36" vertex="1">
          <mxGeometry x="126.5" y="105" width="172" height="54" as="geometry" />
        </mxCell>
        <mxCell id="_GfdGtISQYKUp6_XVA1W-76" value="FusedMBConv×1: 8→8" style="whiteSpace=wrap;strokeWidth=2;labelBackgroundColor=none;rounded=0;shadow=0;fontSize=16;fontFamily=Verdana;fixDash=0;snapToPoint=0;backgroundOutline=0;" parent="AOLd8nBtHAA1P6w7lScT-36" vertex="1">
          <mxGeometry x="104" y="231" width="217" height="54" as="geometry" />
        </mxCell>
        <mxCell id="_GfdGtISQYKUp6_XVA1W-77" value="FusedMBConv×1: 8→16, s=2" style="whiteSpace=wrap;strokeWidth=2;labelBackgroundColor=none;rounded=0;shadow=0;fontSize=16;fontFamily=Verdana;fixDash=0;snapToPoint=0;backgroundOutline=0;" parent="AOLd8nBtHAA1P6w7lScT-36" vertex="1">
          <mxGeometry x="56.5" y="357" width="259" height="54" as="geometry" />
        </mxCell>
        <mxCell id="_GfdGtISQYKUp6_XVA1W-78" value="FusedMBConv×3: 16→16" style="whiteSpace=wrap;strokeWidth=2;labelBackgroundColor=none;rounded=0;shadow=0;fontSize=16;fontFamily=Verdana;fixDash=0;snapToPoint=0;backgroundOutline=0;" parent="AOLd8nBtHAA1P6w7lScT-36" vertex="1">
          <mxGeometry x="96" y="484" width="233" height="54" as="geometry" />
        </mxCell>
        <mxCell id="_GfdGtISQYKUp6_XVA1W-79" value="FusedMBConv×1: 16→16, s=2" style="whiteSpace=wrap;strokeWidth=2;labelBackgroundColor=none;rounded=0;shadow=0;fontSize=16;fontFamily=Verdana;fixDash=0;snapToPoint=0;backgroundOutline=0;" parent="AOLd8nBtHAA1P6w7lScT-36" vertex="1">
          <mxGeometry x="56" y="610" width="260" height="78" as="geometry" />
        </mxCell>
        <mxCell id="_GfdGtISQYKUp6_XVA1W-80" value="FusedMBConv×3: 16→16" style="whiteSpace=wrap;strokeWidth=2;labelBackgroundColor=none;rounded=0;shadow=0;fontSize=15;fontFamily=Verdana;fixDash=0;snapToPoint=0;backgroundOutline=0;" parent="AOLd8nBtHAA1P6w7lScT-36" vertex="1">
          <mxGeometry x="96" y="761" width="233" height="54" as="geometry" />
        </mxCell>
        <mxCell id="_GfdGtISQYKUp6_XVA1W-81" value="MBConv×1: 16→32, s=2" style="whiteSpace=wrap;strokeWidth=2;labelBackgroundColor=none;rounded=0;shadow=0;fontSize=15;fontFamily=Verdana;fixDash=0;snapToPoint=0;backgroundOutline=0;" parent="AOLd8nBtHAA1P6w7lScT-36" vertex="1">
          <mxGeometry x="378.5" y="758" width="226" height="54" as="geometry" />
        </mxCell>
        <mxCell id="BtkpZdqmRStXKEmJAE4n-9" style="edgeStyle=orthogonalEdgeStyle;rounded=0;orthogonalLoop=1;jettySize=auto;html=1;exitX=1;exitY=0.5;exitDx=0;exitDy=0;entryX=0;entryY=0.5;entryDx=0;entryDy=0;fontColor=default;fontSize=16;strokeWidth=2;labelBackgroundColor=none;" parent="AOLd8nBtHAA1P6w7lScT-36" source="_GfdGtISQYKUp6_XVA1W-82" target="_GfdGtISQYKUp6_XVA1W-92" edge="1">
          <mxGeometry relative="1" as="geometry" />
        </mxCell>
        <mxCell id="BtkpZdqmRStXKEmJAE4n-10" value="&lt;span style=&quot;font-family: Verdana;&quot;&gt;32×40×40&lt;/span&gt;" style="edgeLabel;html=1;align=center;verticalAlign=middle;resizable=0;points=[];labelBackgroundColor=none;fontSize=16;rounded=0;" parent="BtkpZdqmRStXKEmJAE4n-9" vertex="1" connectable="0">
          <mxGeometry x="-0.0321" y="-3" relative="1" as="geometry">
            <mxPoint y="1" as="offset" />
          </mxGeometry>
        </mxCell>
        <mxCell id="_GfdGtISQYKUp6_XVA1W-82" value="MBConv×2: 32→32" style="whiteSpace=wrap;strokeWidth=2;labelBackgroundColor=none;rounded=0;shadow=0;fontSize=16;fontFamily=Verdana;fixDash=0;snapToPoint=0;backgroundOutline=0;" parent="AOLd8nBtHAA1P6w7lScT-36" vertex="1">
          <mxGeometry x="395.5" y="637" width="192" height="54" as="geometry" />
        </mxCell>
        <mxCell id="_GfdGtISQYKUp6_XVA1W-83" value="MBConv×1: 32→40, s=2" style="whiteSpace=wrap;strokeWidth=2;labelBackgroundColor=none;rounded=0;shadow=0;fontSize=16;fontFamily=Verdana;fixDash=0;snapToPoint=0;backgroundOutline=0;" parent="AOLd8nBtHAA1P6w7lScT-36" vertex="1">
          <mxGeometry x="378.5" y="489" width="226" height="54" as="geometry" />
        </mxCell>
        <mxCell id="BtkpZdqmRStXKEmJAE4n-5" style="edgeStyle=orthogonalEdgeStyle;rounded=0;orthogonalLoop=1;jettySize=auto;html=1;exitX=1;exitY=0.5;exitDx=0;exitDy=0;entryX=0;entryY=0.5;entryDx=0;entryDy=0;fontColor=default;fontSize=16;strokeWidth=2;labelBackgroundColor=none;" parent="AOLd8nBtHAA1P6w7lScT-36" source="_GfdGtISQYKUp6_XVA1W-84" target="_GfdGtISQYKUp6_XVA1W-89" edge="1">
          <mxGeometry relative="1" as="geometry" />
        </mxCell>
        <mxCell id="BtkpZdqmRStXKEmJAE4n-6" value="&lt;span style=&quot;font-family: Verdana;&quot;&gt;40×20×20&lt;/span&gt;" style="edgeLabel;html=1;align=center;verticalAlign=middle;resizable=0;points=[];labelBackgroundColor=none;fontSize=16;rounded=0;" parent="BtkpZdqmRStXKEmJAE4n-5" vertex="1" connectable="0">
          <mxGeometry x="-0.0958" y="3" relative="1" as="geometry">
            <mxPoint x="2" y="-19" as="offset" />
          </mxGeometry>
        </mxCell>
        <mxCell id="_GfdGtISQYKUp6_XVA1W-84" value="MBConv×3: 40→40" style="whiteSpace=wrap;strokeWidth=2;labelBackgroundColor=none;rounded=0;shadow=0;fontSize=16;fontFamily=Verdana;fixDash=0;snapToPoint=0;backgroundOutline=0;" parent="AOLd8nBtHAA1P6w7lScT-36" vertex="1">
          <mxGeometry x="395.5" y="375" width="192" height="54" as="geometry" />
        </mxCell>
        <mxCell id="_GfdGtISQYKUp6_XVA1W-85" value="MBConv×1: 40→72, s=2" style="whiteSpace=wrap;strokeWidth=2;labelBackgroundColor=none;rounded=0;shadow=0;fontSize=16;fontFamily=Verdana;fixDash=0;snapToPoint=0;backgroundOutline=0;" parent="AOLd8nBtHAA1P6w7lScT-36" vertex="1">
          <mxGeometry x="378.5" y="281" width="226" height="54" as="geometry" />
        </mxCell>
        <mxCell id="_GfdGtISQYKUp6_XVA1W-86" value="MBConv×5: 72→72" style="whiteSpace=wrap;strokeWidth=2;labelBackgroundColor=none;rounded=0;shadow=0;fontSize=16;fontFamily=Verdana;fixDash=0;snapToPoint=0;backgroundOutline=0;" parent="AOLd8nBtHAA1P6w7lScT-36" vertex="1">
          <mxGeometry x="395.5" y="197" width="192" height="54" as="geometry" />
        </mxCell>
        <mxCell id="BtkpZdqmRStXKEmJAE4n-1" style="edgeStyle=orthogonalEdgeStyle;rounded=0;orthogonalLoop=1;jettySize=auto;html=1;exitX=1;exitY=0.5;exitDx=0;exitDy=0;entryX=0.5;entryY=0;entryDx=0;entryDy=0;fontColor=default;fontSize=16;strokeWidth=2;labelBackgroundColor=none;" parent="AOLd8nBtHAA1P6w7lScT-36" source="_GfdGtISQYKUp6_XVA1W-87" target="_GfdGtISQYKUp6_XVA1W-88" edge="1">
          <mxGeometry relative="1" as="geometry" />
        </mxCell>
        <mxCell id="BtkpZdqmRStXKEmJAE4n-2" value="&lt;span style=&quot;font-family: Verdana;&quot;&gt;256×10×10&lt;/span&gt;" style="edgeLabel;html=1;align=center;verticalAlign=middle;resizable=0;points=[];labelBackgroundColor=none;fontSize=16;rounded=0;" parent="BtkpZdqmRStXKEmJAE4n-1" vertex="1" connectable="0">
          <mxGeometry x="0.7192" relative="1" as="geometry">
            <mxPoint x="-51" y="4" as="offset" />
          </mxGeometry>
        </mxCell>
        <mxCell id="BtkpZdqmRStXKEmJAE4n-3" style="edgeStyle=orthogonalEdgeStyle;rounded=0;orthogonalLoop=1;jettySize=auto;html=1;exitX=1;exitY=0.5;exitDx=0;exitDy=0;entryX=0;entryY=0.5;entryDx=0;entryDy=0;fontColor=default;fontSize=16;strokeWidth=2;labelBackgroundColor=none;" parent="AOLd8nBtHAA1P6w7lScT-36" source="_GfdGtISQYKUp6_XVA1W-87" target="_GfdGtISQYKUp6_XVA1W-100" edge="1">
          <mxGeometry relative="1" as="geometry">
            <Array as="points">
              <mxPoint x="852" y="135" />
              <mxPoint x="852" y="236" />
            </Array>
          </mxGeometry>
        </mxCell>
        <mxCell id="BtkpZdqmRStXKEmJAE4n-4" value="&lt;span style=&quot;font-family: Verdana;&quot;&gt;256×10×10&lt;/span&gt;" style="edgeLabel;html=1;align=center;verticalAlign=middle;resizable=0;points=[];labelBackgroundColor=none;fontSize=16;rounded=0;" parent="BtkpZdqmRStXKEmJAE4n-3" vertex="1" connectable="0">
          <mxGeometry x="0.6457" y="2" relative="1" as="geometry">
            <mxPoint x="2" y="-134" as="offset" />
          </mxGeometry>
        </mxCell>
        <mxCell id="_GfdGtISQYKUp6_XVA1W-87" value="SPPF: 72→256" style="whiteSpace=wrap;strokeWidth=2;labelBackgroundColor=none;rounded=0;shadow=0;fontSize=16;fontFamily=Verdana;fixDash=0;snapToPoint=0;backgroundOutline=0;" parent="AOLd8nBtHAA1P6w7lScT-36" vertex="1">
          <mxGeometry x="410" y="108" width="163" height="54" as="geometry" />
        </mxCell>
        <mxCell id="_GfdGtISQYKUp6_XVA1W-88" value="Upsample×2" style="whiteSpace=wrap;strokeWidth=2;labelBackgroundColor=none;rounded=0;shadow=0;fontSize=16;fontFamily=Verdana;fixDash=0;snapToPoint=0;backgroundOutline=0;" parent="AOLd8nBtHAA1P6w7lScT-36" vertex="1">
          <mxGeometry x="685" y="177" width="147" height="54" as="geometry" />
        </mxCell>
        <mxCell id="_GfdGtISQYKUp6_XVA1W-89" value="Concat: 256+40" style="whiteSpace=wrap;strokeWidth=2;labelBackgroundColor=none;rounded=0;shadow=0;fontSize=16;fontFamily=Verdana;fixDash=0;snapToPoint=0;backgroundOutline=0;" parent="AOLd8nBtHAA1P6w7lScT-36" vertex="1">
          <mxGeometry x="673" y="281" width="171" height="54" as="geometry" />
        </mxCell>
        <mxCell id="BtkpZdqmRStXKEmJAE4n-7" style="edgeStyle=orthogonalEdgeStyle;rounded=0;orthogonalLoop=1;jettySize=auto;html=1;exitX=1;exitY=0.5;exitDx=0;exitDy=0;entryX=0;entryY=0.5;entryDx=0;entryDy=0;fontColor=default;fontSize=16;strokeWidth=2;labelBackgroundColor=none;" parent="AOLd8nBtHAA1P6w7lScT-36" source="_GfdGtISQYKUp6_XVA1W-90" target="_GfdGtISQYKUp6_XVA1W-96" edge="1">
          <mxGeometry relative="1" as="geometry" />
        </mxCell>
        <mxCell id="BtkpZdqmRStXKEmJAE4n-8" value="&lt;span style=&quot;font-family: Verdana;&quot;&gt;128×20×20&lt;/span&gt;" style="edgeLabel;html=1;align=center;verticalAlign=middle;resizable=0;points=[];labelBackgroundColor=none;fontSize=16;rounded=0;" parent="BtkpZdqmRStXKEmJAE4n-7" vertex="1" connectable="0">
          <mxGeometry x="-0.0147" y="-4" relative="1" as="geometry">
            <mxPoint y="-23" as="offset" />
          </mxGeometry>
        </mxCell>
        <mxCell id="_GfdGtISQYKUp6_XVA1W-90" value="C2f: 296→128" style="whiteSpace=wrap;strokeWidth=2;labelBackgroundColor=none;rounded=0;shadow=0;fontSize=16;fontFamily=Verdana;fixDash=0;snapToPoint=0;backgroundOutline=0;" parent="AOLd8nBtHAA1P6w7lScT-36" vertex="1">
          <mxGeometry x="678" y="369" width="161" height="54" as="geometry" />
        </mxCell>
        <mxCell id="_GfdGtISQYKUp6_XVA1W-91" value="Upsample×2" style="whiteSpace=wrap;strokeWidth=2;labelBackgroundColor=none;rounded=0;shadow=0;fontSize=16;fontFamily=Verdana;fixDash=0;snapToPoint=0;backgroundOutline=0;" parent="AOLd8nBtHAA1P6w7lScT-36" vertex="1">
          <mxGeometry x="685" y="465" width="147" height="54" as="geometry" />
        </mxCell>
        <mxCell id="BtkpZdqmRStXKEmJAE4n-12" style="edgeStyle=orthogonalEdgeStyle;rounded=0;orthogonalLoop=1;jettySize=auto;html=1;exitX=0.5;exitY=1;exitDx=0;exitDy=0;entryX=0.5;entryY=0;entryDx=0;entryDy=0;fontColor=default;fontSize=16;strokeWidth=2;labelBackgroundColor=none;" parent="AOLd8nBtHAA1P6w7lScT-36" source="_GfdGtISQYKUp6_XVA1W-92" target="_GfdGtISQYKUp6_XVA1W-93" edge="1">
          <mxGeometry relative="1" as="geometry" />
        </mxCell>
        <mxCell id="BtkpZdqmRStXKEmJAE4n-13" value="&lt;span style=&quot;font-family: Verdana;&quot;&gt;160×40×40&lt;/span&gt;" style="edgeLabel;html=1;align=center;verticalAlign=middle;resizable=0;points=[];labelBackgroundColor=none;fontSize=16;rounded=0;" parent="BtkpZdqmRStXKEmJAE4n-12" vertex="1" connectable="0">
          <mxGeometry x="-0.1366" y="4626" relative="1" as="geometry">
            <mxPoint x="4" y="-27" as="offset" />
          </mxGeometry>
        </mxCell>
        <mxCell id="AOLd8nBtHAA1P6w7lScT-28" value="&lt;span style=&quot;font-family: Verdana; font-size: 16px;&quot;&gt;160×40×40&lt;/span&gt;" style="edgeLabel;html=1;align=center;verticalAlign=middle;resizable=0;points=[];labelBackgroundColor=none;rounded=0;" vertex="1" connectable="0" parent="BtkpZdqmRStXKEmJAE4n-12">
          <mxGeometry x="-0.6" y="-4" relative="1" as="geometry">
            <mxPoint x="61" y="9" as="offset" />
          </mxGeometry>
        </mxCell>
        <mxCell id="_GfdGtISQYKUp6_XVA1W-92" value="Concat: 128+32" style="whiteSpace=wrap;strokeWidth=2;labelBackgroundColor=none;rounded=0;shadow=0;fontSize=15;fontFamily=Verdana;fixDash=0;snapToPoint=0;backgroundOutline=0;" parent="AOLd8nBtHAA1P6w7lScT-36" vertex="1">
          <mxGeometry x="673" y="550" width="171" height="54" as="geometry" />
        </mxCell>
        <mxCell id="BtkpZdqmRStXKEmJAE4n-19" style="edgeStyle=orthogonalEdgeStyle;rounded=0;orthogonalLoop=1;jettySize=auto;html=1;exitX=1;exitY=0.5;exitDx=0;exitDy=0;entryX=0.5;entryY=0;entryDx=0;entryDy=0;fontColor=default;fontSize=16;strokeWidth=2;labelBackgroundColor=none;" parent="AOLd8nBtHAA1P6w7lScT-36" source="AOLd8nBtHAA1P6w7lScT-14" target="_GfdGtISQYKUp6_XVA1W-94" edge="1">
          <mxGeometry relative="1" as="geometry" />
        </mxCell>
        <mxCell id="BtkpZdqmRStXKEmJAE4n-20" value="&lt;span style=&quot;font-family: Verdana;&quot;&gt;64×40×40&lt;/span&gt;" style="edgeLabel;html=1;align=center;verticalAlign=middle;resizable=0;points=[];fontSize=16;labelBackgroundColor=none;rounded=0;" parent="BtkpZdqmRStXKEmJAE4n-19" vertex="1" connectable="0">
          <mxGeometry x="0.072" y="2" relative="1" as="geometry">
            <mxPoint y="1" as="offset" />
          </mxGeometry>
        </mxCell>
        <mxCell id="AOLd8nBtHAA1P6w7lScT-18" style="edgeStyle=orthogonalEdgeStyle;rounded=0;orthogonalLoop=1;jettySize=auto;html=1;exitX=0.5;exitY=1;exitDx=0;exitDy=0;entryX=0.5;entryY=0;entryDx=0;entryDy=0;strokeWidth=2;labelBackgroundColor=none;fontColor=default;" edge="1" parent="AOLd8nBtHAA1P6w7lScT-36" source="_GfdGtISQYKUp6_XVA1W-93" target="AOLd8nBtHAA1P6w7lScT-7">
          <mxGeometry relative="1" as="geometry" />
        </mxCell>
        <mxCell id="AOLd8nBtHAA1P6w7lScT-19" value="&lt;span style=&quot;font-family: Verdana; font-size: 16px; background-color: rgb(236, 236, 236);&quot;&gt;64×40×40&lt;/span&gt;" style="edgeLabel;html=1;align=center;verticalAlign=middle;resizable=0;points=[];labelBackgroundColor=none;rounded=0;" vertex="1" connectable="0" parent="AOLd8nBtHAA1P6w7lScT-18">
          <mxGeometry x="0.1761" y="4745" relative="1" as="geometry">
            <mxPoint x="1" as="offset" />
          </mxGeometry>
        </mxCell>
        <mxCell id="_GfdGtISQYKUp6_XVA1W-93" value="C2f: 160→64" style="whiteSpace=wrap;strokeWidth=2;labelBackgroundColor=none;rounded=0;shadow=0;fontSize=15;fontFamily=Verdana;fixDash=0;snapToPoint=0;backgroundOutline=0;" parent="AOLd8nBtHAA1P6w7lScT-36" vertex="1">
          <mxGeometry x="682" y="629" width="153" height="58" as="geometry" />
        </mxCell>
        <mxCell id="BtkpZdqmRStXKEmJAE4n-16" style="edgeStyle=orthogonalEdgeStyle;rounded=0;orthogonalLoop=1;jettySize=auto;html=1;exitX=0.5;exitY=1;exitDx=0;exitDy=0;entryX=0;entryY=0.5;entryDx=0;entryDy=0;fontColor=default;fontSize=16;strokeWidth=2;labelBackgroundColor=none;" parent="AOLd8nBtHAA1P6w7lScT-36" source="_GfdGtISQYKUp6_XVA1W-94" target="_GfdGtISQYKUp6_XVA1W-103" edge="1">
          <mxGeometry relative="1" as="geometry" />
        </mxCell>
        <mxCell id="_GfdGtISQYKUp6_XVA1W-94" value="P3/8 Output" style="whiteSpace=wrap;strokeWidth=2;labelBackgroundColor=none;rounded=0;direction=north;shadow=0;fontSize=16;fontFamily=Verdana;fixDash=0;snapToPoint=0;backgroundOutline=0;" parent="AOLd8nBtHAA1P6w7lScT-36" vertex="1">
          <mxGeometry x="1190.05" y="556" width="54" height="149" as="geometry" />
        </mxCell>
        <mxCell id="_GfdGtISQYKUp6_XVA1W-95" value="Conv: s=2" style="whiteSpace=wrap;strokeWidth=2;labelBackgroundColor=none;rounded=0;shadow=0;fontSize=16;fontFamily=Verdana;fixDash=0;snapToPoint=0;backgroundOutline=0;" parent="AOLd8nBtHAA1P6w7lScT-36" vertex="1">
          <mxGeometry x="951" y="586" width="129" height="54" as="geometry" />
        </mxCell>
        <mxCell id="_GfdGtISQYKUp6_XVA1W-96" value="Concat: 64+128" style="whiteSpace=wrap;strokeWidth=2;labelBackgroundColor=none;rounded=0;shadow=0;fontSize=16;fontFamily=Verdana;fixDash=0;snapToPoint=0;backgroundOutline=0;" parent="AOLd8nBtHAA1P6w7lScT-36" vertex="1">
          <mxGeometry x="930" y="494" width="171" height="54" as="geometry" />
        </mxCell>
        <mxCell id="_GfdGtISQYKUp6_XVA1W-97" value="C2f: 192→128" style="whiteSpace=wrap;strokeWidth=2;labelBackgroundColor=none;rounded=0;shadow=0;fontSize=16;fontFamily=Verdana;fixDash=0;snapToPoint=0;backgroundOutline=0;" parent="AOLd8nBtHAA1P6w7lScT-36" vertex="1">
          <mxGeometry x="935" y="414" width="161" height="54" as="geometry" />
        </mxCell>
        <mxCell id="_GfdGtISQYKUp6_XVA1W-98" value="P4/16 Output" style="whiteSpace=wrap;strokeWidth=2;labelBackgroundColor=none;rounded=0;direction=north;shadow=0;fontSize=16;fontFamily=Verdana;fixDash=0;snapToPoint=0;backgroundOutline=0;" parent="AOLd8nBtHAA1P6w7lScT-36" vertex="1">
          <mxGeometry x="1187.5" y="362.5" width="54" height="157" as="geometry" />
        </mxCell>
        <mxCell id="_GfdGtISQYKUp6_XVA1W-99" value="Conv: s=2" style="whiteSpace=wrap;strokeWidth=2;labelBackgroundColor=none;rounded=0;shadow=0;fontSize=16;fontFamily=Verdana;fixDash=0;snapToPoint=0;backgroundOutline=0;" parent="AOLd8nBtHAA1P6w7lScT-36" vertex="1">
          <mxGeometry x="951" y="312" width="129" height="54" as="geometry" />
        </mxCell>
        <mxCell id="_GfdGtISQYKUp6_XVA1W-100" value="Concat: 128+256" style="whiteSpace=wrap;strokeWidth=2;labelBackgroundColor=none;rounded=0;shadow=0;fontSize=16;fontFamily=Verdana;fixDash=0;snapToPoint=0;backgroundOutline=0;" parent="AOLd8nBtHAA1P6w7lScT-36" vertex="1">
          <mxGeometry x="926" y="209" width="179" height="54" as="geometry" />
        </mxCell>
        <mxCell id="BtkpZdqmRStXKEmJAE4n-17" style="edgeStyle=orthogonalEdgeStyle;rounded=0;orthogonalLoop=1;jettySize=auto;html=1;exitX=1;exitY=0.5;exitDx=0;exitDy=0;entryX=0.5;entryY=1;entryDx=0;entryDy=0;fontColor=default;fontSize=16;strokeWidth=2;labelBackgroundColor=none;" parent="AOLd8nBtHAA1P6w7lScT-36" source="_GfdGtISQYKUp6_XVA1W-101" target="_GfdGtISQYKUp6_XVA1W-102" edge="1">
          <mxGeometry relative="1" as="geometry" />
        </mxCell>
        <mxCell id="BtkpZdqmRStXKEmJAE4n-18" value="&lt;span style=&quot;font-family: Verdana;&quot;&gt;256×10×10&lt;/span&gt;" style="edgeLabel;html=1;align=center;verticalAlign=middle;resizable=0;points=[];labelBackgroundColor=none;fontSize=16;rounded=0;" parent="BtkpZdqmRStXKEmJAE4n-17" vertex="1" connectable="0">
          <mxGeometry x="-0.0278" y="-5" relative="1" as="geometry">
            <mxPoint y="-1" as="offset" />
          </mxGeometry>
        </mxCell>
        <mxCell id="_GfdGtISQYKUp6_XVA1W-101" value="C2f: 384→256" style="whiteSpace=wrap;strokeWidth=2;labelBackgroundColor=none;rounded=0;shadow=0;fontSize=16;fontFamily=Verdana;fixDash=0;snapToPoint=0;backgroundOutline=0;" parent="AOLd8nBtHAA1P6w7lScT-36" vertex="1">
          <mxGeometry x="935" y="106" width="161" height="54" as="geometry" />
        </mxCell>
        <mxCell id="BtkpZdqmRStXKEmJAE4n-15" style="edgeStyle=orthogonalEdgeStyle;rounded=0;orthogonalLoop=1;jettySize=auto;html=1;exitX=0.5;exitY=0;exitDx=0;exitDy=0;fontColor=default;fontSize=16;strokeWidth=2;labelBackgroundColor=none;" parent="AOLd8nBtHAA1P6w7lScT-36" source="_GfdGtISQYKUp6_XVA1W-102" target="_GfdGtISQYKUp6_XVA1W-103" edge="1">
          <mxGeometry relative="1" as="geometry" />
        </mxCell>
        <mxCell id="_GfdGtISQYKUp6_XVA1W-102" value="P5/32 Output" style="whiteSpace=wrap;strokeWidth=2;labelBackgroundColor=none;rounded=0;direction=south;shadow=0;fontSize=16;fontFamily=Verdana;fixDash=0;snapToPoint=0;backgroundOutline=0;" parent="AOLd8nBtHAA1P6w7lScT-36" vertex="1">
          <mxGeometry x="1187.5" y="157.5" width="54" height="157" as="geometry" />
        </mxCell>
        <mxCell id="_GfdGtISQYKUp6_XVA1W-103" value="Detect Head" style="whiteSpace=wrap;strokeWidth=2;labelBackgroundColor=none;rounded=0;direction=north;shadow=0;fontSize=16;fontFamily=Verdana;fixDash=0;snapToPoint=0;backgroundOutline=0;" parent="AOLd8nBtHAA1P6w7lScT-36" vertex="1">
          <mxGeometry x="1312.5" y="366.5" width="54" height="149" as="geometry" />
        </mxCell>
        <mxCell id="_GfdGtISQYKUp6_XVA1W-104" value="Output" style="whiteSpace=wrap;strokeWidth=2;labelBackgroundColor=none;rounded=0;direction=north;shadow=0;fontSize=16;fontFamily=Verdana;fixDash=0;snapToPoint=0;backgroundOutline=0;" parent="AOLd8nBtHAA1P6w7lScT-36" vertex="1">
          <mxGeometry x="1437.5" y="386" width="54" height="110" as="geometry" />
        </mxCell>
        <mxCell id="_GfdGtISQYKUp6_XVA1W-105" value="" style="curved=1;startArrow=none;endArrow=block;exitX=0.5;exitY=1;entryX=0.5;entryY=0;rounded=0;labelBackgroundColor=none;fontColor=default;strokeWidth=2;shadow=0;fontSize=16;fontFamily=Verdana;fixDash=0;snapToPoint=0;backgroundOutline=0;" parent="AOLd8nBtHAA1P6w7lScT-36" source="_GfdGtISQYKUp6_XVA1W-74" target="_GfdGtISQYKUp6_XVA1W-75" edge="1">
          <mxGeometry relative="1" as="geometry">
            <Array as="points" />
          </mxGeometry>
        </mxCell>
        <mxCell id="_GfdGtISQYKUp6_XVA1W-106" value="8×320×320" style="curved=1;startArrow=none;endArrow=block;exitX=0.5;exitY=1;entryX=0.5;entryY=0.01;rounded=0;labelBackgroundColor=none;fontColor=default;strokeWidth=2;shadow=0;fontSize=16;fontFamily=Verdana;fixDash=0;snapToPoint=0;backgroundOutline=0;" parent="AOLd8nBtHAA1P6w7lScT-36" source="_GfdGtISQYKUp6_XVA1W-75" target="_GfdGtISQYKUp6_XVA1W-76" edge="1">
          <mxGeometry relative="1" as="geometry">
            <Array as="points" />
          </mxGeometry>
        </mxCell>
        <mxCell id="_GfdGtISQYKUp6_XVA1W-107" value="8×320×320" style="curved=1;startArrow=none;endArrow=block;exitX=0.5;exitY=1.01;entryX=0.5;entryY=0;rounded=0;labelBackgroundColor=none;fontColor=default;strokeWidth=2;shadow=0;fontSize=16;fontFamily=Verdana;fixDash=0;snapToPoint=0;backgroundOutline=0;" parent="AOLd8nBtHAA1P6w7lScT-36" source="_GfdGtISQYKUp6_XVA1W-76" edge="1">
          <mxGeometry relative="1" as="geometry">
            <Array as="points" />
            <mxPoint x="212.49999999999955" y="358" as="targetPoint" />
          </mxGeometry>
        </mxCell>
        <mxCell id="_GfdGtISQYKUp6_XVA1W-108" value="16×160×160" style="curved=1;startArrow=none;endArrow=block;exitX=0.5;exitY=1;entryX=0.5;entryY=0;rounded=0;labelBackgroundColor=none;fontColor=default;strokeWidth=2;shadow=0;fontSize=16;fontFamily=Verdana;fixDash=0;snapToPoint=0;backgroundOutline=0;" parent="AOLd8nBtHAA1P6w7lScT-36" target="_GfdGtISQYKUp6_XVA1W-78" edge="1">
          <mxGeometry relative="1" as="geometry">
            <Array as="points" />
            <mxPoint x="212.49999999999955" y="412" as="sourcePoint" />
          </mxGeometry>
        </mxCell>
        <mxCell id="_GfdGtISQYKUp6_XVA1W-109" value="16×160×160" style="curved=1;startArrow=none;endArrow=block;exitX=0.5;exitY=1;entryX=0.5;entryY=-0.01;rounded=0;labelBackgroundColor=none;fontColor=default;strokeWidth=2;shadow=0;fontSize=16;fontFamily=Verdana;fixDash=0;snapToPoint=0;backgroundOutline=0;" parent="AOLd8nBtHAA1P6w7lScT-36" source="_GfdGtISQYKUp6_XVA1W-78" edge="1">
          <mxGeometry relative="1" as="geometry">
            <Array as="points" />
            <mxPoint x="212.5" y="611" as="targetPoint" />
          </mxGeometry>
        </mxCell>
        <mxCell id="_GfdGtISQYKUp6_XVA1W-110" value="16×80×80" style="curved=1;startArrow=none;endArrow=block;exitX=0.5;exitY=0.99;entryX=0.5;entryY=0;rounded=0;labelBackgroundColor=none;fontColor=default;strokeWidth=2;shadow=0;fontSize=16;fontFamily=Verdana;fixDash=0;snapToPoint=0;backgroundOutline=0;" parent="AOLd8nBtHAA1P6w7lScT-36" target="_GfdGtISQYKUp6_XVA1W-80" edge="1">
          <mxGeometry relative="1" as="geometry">
            <Array as="points" />
            <mxPoint x="212.5" y="689" as="sourcePoint" />
          </mxGeometry>
        </mxCell>
        <mxCell id="_GfdGtISQYKUp6_XVA1W-111" value="16×80×80" style="curved=1;startArrow=none;endArrow=block;exitX=1;exitY=0.5;entryX=0;entryY=0.5;rounded=0;labelBackgroundColor=none;fontColor=default;exitDx=0;exitDy=0;entryDx=0;entryDy=0;strokeWidth=2;shadow=0;fontSize=16;fontFamily=Verdana;fixDash=0;snapToPoint=0;backgroundOutline=0;" parent="AOLd8nBtHAA1P6w7lScT-36" source="_GfdGtISQYKUp6_XVA1W-80" target="_GfdGtISQYKUp6_XVA1W-81" edge="1">
          <mxGeometry x="0.1443" y="38" relative="1" as="geometry">
            <Array as="points" />
            <mxPoint x="-1" as="offset" />
          </mxGeometry>
        </mxCell>
        <mxCell id="_GfdGtISQYKUp6_XVA1W-112" value="32×40×40" style="curved=1;startArrow=none;endArrow=block;exitX=0.5;exitY=0;rounded=0;labelBackgroundColor=none;fontColor=default;exitDx=0;exitDy=0;entryX=0.5;entryY=1;entryDx=0;entryDy=0;strokeWidth=2;shadow=0;fontSize=16;fontFamily=Verdana;fixDash=0;snapToPoint=0;backgroundOutline=0;" parent="AOLd8nBtHAA1P6w7lScT-36" source="_GfdGtISQYKUp6_XVA1W-81" target="_GfdGtISQYKUp6_XVA1W-82" edge="1">
          <mxGeometry relative="1" as="geometry">
            <Array as="points" />
            <mxPoint x="486.5" y="677" as="targetPoint" />
          </mxGeometry>
        </mxCell>
        <mxCell id="_GfdGtISQYKUp6_XVA1W-113" value="32×40×40" style="curved=1;startArrow=none;endArrow=block;exitX=0.5;exitY=0;entryX=0.5;entryY=1;rounded=0;labelBackgroundColor=none;fontColor=default;exitDx=0;exitDy=0;entryDx=0;entryDy=0;strokeWidth=2;shadow=0;fontSize=16;fontFamily=Verdana;fixDash=0;snapToPoint=0;backgroundOutline=0;" parent="AOLd8nBtHAA1P6w7lScT-36" source="_GfdGtISQYKUp6_XVA1W-82" target="_GfdGtISQYKUp6_XVA1W-83" edge="1">
          <mxGeometry relative="1" as="geometry">
            <Array as="points" />
          </mxGeometry>
        </mxCell>
        <mxCell id="_GfdGtISQYKUp6_XVA1W-114" value="40×20×20" style="curved=1;startArrow=none;endArrow=block;exitX=0.5;exitY=0;entryX=0.5;entryY=1;rounded=0;labelBackgroundColor=none;fontColor=default;exitDx=0;exitDy=0;entryDx=0;entryDy=0;strokeWidth=2;shadow=0;fontSize=16;fontFamily=Verdana;fixDash=0;snapToPoint=0;backgroundOutline=0;" parent="AOLd8nBtHAA1P6w7lScT-36" source="_GfdGtISQYKUp6_XVA1W-83" target="_GfdGtISQYKUp6_XVA1W-84" edge="1">
          <mxGeometry relative="1" as="geometry">
            <Array as="points" />
          </mxGeometry>
        </mxCell>
        <mxCell id="_GfdGtISQYKUp6_XVA1W-115" value="40×20×20" style="curved=1;startArrow=none;endArrow=block;exitX=0.5;exitY=0;entryX=0.5;entryY=1;rounded=0;labelBackgroundColor=none;fontColor=default;exitDx=0;exitDy=0;entryDx=0;entryDy=0;strokeWidth=2;shadow=0;fontSize=16;fontFamily=Verdana;fixDash=0;snapToPoint=0;backgroundOutline=0;" parent="AOLd8nBtHAA1P6w7lScT-36" source="_GfdGtISQYKUp6_XVA1W-84" target="_GfdGtISQYKUp6_XVA1W-85" edge="1">
          <mxGeometry relative="1" as="geometry">
            <Array as="points" />
          </mxGeometry>
        </mxCell>
        <mxCell id="_GfdGtISQYKUp6_XVA1W-116" value="72×10×10" style="curved=1;startArrow=none;endArrow=block;exitX=0.5;exitY=0;entryX=0.5;entryY=1;rounded=0;labelBackgroundColor=none;fontColor=default;exitDx=0;exitDy=0;entryDx=0;entryDy=0;strokeWidth=2;shadow=0;fontSize=16;fontFamily=Verdana;fixDash=0;snapToPoint=0;backgroundOutline=0;" parent="AOLd8nBtHAA1P6w7lScT-36" source="_GfdGtISQYKUp6_XVA1W-85" target="_GfdGtISQYKUp6_XVA1W-86" edge="1">
          <mxGeometry relative="1" as="geometry">
            <Array as="points" />
          </mxGeometry>
        </mxCell>
        <mxCell id="_GfdGtISQYKUp6_XVA1W-117" value="72×10×10" style="curved=1;startArrow=none;endArrow=block;exitX=0.5;exitY=0;entryX=0.5;entryY=1;rounded=0;labelBackgroundColor=none;fontColor=default;exitDx=0;exitDy=0;entryDx=0;entryDy=0;strokeWidth=2;shadow=0;fontSize=16;fontFamily=Verdana;fixDash=0;snapToPoint=0;backgroundOutline=0;" parent="AOLd8nBtHAA1P6w7lScT-36" source="_GfdGtISQYKUp6_XVA1W-86" target="_GfdGtISQYKUp6_XVA1W-87" edge="1">
          <mxGeometry relative="1" as="geometry">
            <Array as="points" />
          </mxGeometry>
        </mxCell>
        <mxCell id="_GfdGtISQYKUp6_XVA1W-119" value="256×20×20" style="curved=1;startArrow=none;endArrow=block;exitX=0.5;exitY=1;entryX=0.5;entryY=0;rounded=0;labelBackgroundColor=none;fontColor=default;entryDx=0;entryDy=0;strokeWidth=2;shadow=0;fontSize=16;fontFamily=Verdana;fixDash=0;snapToPoint=0;backgroundOutline=0;" parent="AOLd8nBtHAA1P6w7lScT-36" source="_GfdGtISQYKUp6_XVA1W-88" target="_GfdGtISQYKUp6_XVA1W-89" edge="1">
          <mxGeometry relative="1" as="geometry">
            <Array as="points" />
          </mxGeometry>
        </mxCell>
        <mxCell id="_GfdGtISQYKUp6_XVA1W-121" value="296×20×20" style="curved=1;startArrow=none;endArrow=block;exitX=0.5;exitY=0.99;entryX=0.5;entryY=0;rounded=0;labelBackgroundColor=none;fontColor=default;strokeWidth=2;shadow=0;fontSize=16;fontFamily=Verdana;fixDash=0;snapToPoint=0;backgroundOutline=0;" parent="AOLd8nBtHAA1P6w7lScT-36" source="_GfdGtISQYKUp6_XVA1W-89" target="_GfdGtISQYKUp6_XVA1W-90" edge="1">
          <mxGeometry relative="1" as="geometry">
            <Array as="points" />
          </mxGeometry>
        </mxCell>
        <mxCell id="_GfdGtISQYKUp6_XVA1W-122" value="128×20×20" style="curved=1;startArrow=none;endArrow=block;exitX=0.5;exitY=1;entryX=0.5;entryY=0.01;rounded=0;labelBackgroundColor=none;fontColor=default;strokeWidth=2;shadow=0;fontSize=16;fontFamily=Verdana;fixDash=0;snapToPoint=0;backgroundOutline=0;" parent="AOLd8nBtHAA1P6w7lScT-36" source="_GfdGtISQYKUp6_XVA1W-90" target="_GfdGtISQYKUp6_XVA1W-91" edge="1">
          <mxGeometry relative="1" as="geometry">
            <Array as="points" />
          </mxGeometry>
        </mxCell>
        <mxCell id="_GfdGtISQYKUp6_XVA1W-123" value="128×40×40" style="curved=1;startArrow=none;endArrow=block;exitX=0.5;exitY=1.01;entryX=0.5;entryY=0;rounded=0;labelBackgroundColor=none;fontColor=default;entryDx=0;entryDy=0;strokeWidth=2;shadow=0;fontSize=16;fontFamily=Verdana;fixDash=0;snapToPoint=0;backgroundOutline=0;" parent="AOLd8nBtHAA1P6w7lScT-36" source="_GfdGtISQYKUp6_XVA1W-91" target="_GfdGtISQYKUp6_XVA1W-92" edge="1">
          <mxGeometry relative="1" as="geometry">
            <Array as="points" />
          </mxGeometry>
        </mxCell>
        <mxCell id="_GfdGtISQYKUp6_XVA1W-127" value="64×40×40" style="curved=1;startArrow=none;endArrow=block;exitX=0.5;exitY=0;entryX=0.5;entryY=1;rounded=0;labelBackgroundColor=none;fontColor=default;exitDx=0;exitDy=0;entryDx=0;entryDy=0;strokeWidth=2;shadow=0;fontSize=16;fontFamily=Verdana;fixDash=0;snapToPoint=0;backgroundOutline=0;" parent="AOLd8nBtHAA1P6w7lScT-36" source="AOLd8nBtHAA1P6w7lScT-14" target="_GfdGtISQYKUp6_XVA1W-95" edge="1">
          <mxGeometry x="-0.011" relative="1" as="geometry">
            <Array as="points" />
            <mxPoint as="offset" />
          </mxGeometry>
        </mxCell>
        <mxCell id="_GfdGtISQYKUp6_XVA1W-128" value="64×20×20" style="curved=1;startArrow=none;endArrow=block;exitX=0.5;exitY=0;entryX=0.5;entryY=1;rounded=0;labelBackgroundColor=none;fontColor=default;exitDx=0;exitDy=0;entryDx=0;entryDy=0;strokeWidth=2;shadow=0;fontSize=16;fontFamily=Verdana;fixDash=0;snapToPoint=0;backgroundOutline=0;" parent="AOLd8nBtHAA1P6w7lScT-36" source="_GfdGtISQYKUp6_XVA1W-95" target="_GfdGtISQYKUp6_XVA1W-96" edge="1">
          <mxGeometry relative="1" as="geometry">
            <Array as="points" />
          </mxGeometry>
        </mxCell>
        <mxCell id="_GfdGtISQYKUp6_XVA1W-130" value="192×20×20" style="curved=1;startArrow=none;endArrow=block;exitX=0.5;exitY=0;entryX=0.5;entryY=1;rounded=0;labelBackgroundColor=none;fontColor=default;exitDx=0;exitDy=0;entryDx=0;entryDy=0;strokeWidth=2;shadow=0;fontSize=16;fontFamily=Verdana;fixDash=0;snapToPoint=0;backgroundOutline=0;" parent="AOLd8nBtHAA1P6w7lScT-36" source="_GfdGtISQYKUp6_XVA1W-96" target="_GfdGtISQYKUp6_XVA1W-97" edge="1">
          <mxGeometry relative="1" as="geometry">
            <Array as="points" />
          </mxGeometry>
        </mxCell>
        <mxCell id="_GfdGtISQYKUp6_XVA1W-131" value="128×20×20" style="curved=1;startArrow=none;endArrow=block;exitX=1;exitY=0.5;entryX=0.5;entryY=0;rounded=0;labelBackgroundColor=none;fontColor=default;exitDx=0;exitDy=0;strokeWidth=2;shadow=0;fontSize=16;fontFamily=Verdana;fixDash=0;snapToPoint=0;backgroundOutline=0;" parent="AOLd8nBtHAA1P6w7lScT-36" source="_GfdGtISQYKUp6_XVA1W-97" target="_GfdGtISQYKUp6_XVA1W-98" edge="1">
          <mxGeometry x="-0.0932" y="22" relative="1" as="geometry">
            <Array as="points" />
            <mxPoint as="offset" />
          </mxGeometry>
        </mxCell>
        <mxCell id="_GfdGtISQYKUp6_XVA1W-132" value="128×20×20" style="curved=1;startArrow=none;endArrow=block;exitX=0.5;exitY=0;entryX=0.5;entryY=1;rounded=0;labelBackgroundColor=none;fontColor=default;exitDx=0;exitDy=0;entryDx=0;entryDy=0;strokeWidth=2;shadow=0;fontSize=16;fontFamily=Verdana;fixDash=0;snapToPoint=0;backgroundOutline=0;" parent="AOLd8nBtHAA1P6w7lScT-36" source="_GfdGtISQYKUp6_XVA1W-97" target="_GfdGtISQYKUp6_XVA1W-99" edge="1">
          <mxGeometry relative="1" as="geometry">
            <Array as="points" />
          </mxGeometry>
        </mxCell>
        <mxCell id="_GfdGtISQYKUp6_XVA1W-133" value="128×10×10" style="curved=1;startArrow=none;endArrow=block;exitX=0.5;exitY=0;entryX=0.5;entryY=1;rounded=0;labelBackgroundColor=none;fontColor=default;exitDx=0;exitDy=0;entryDx=0;entryDy=0;strokeWidth=2;shadow=0;fontSize=16;fontFamily=Verdana;fixDash=0;snapToPoint=0;backgroundOutline=0;" parent="AOLd8nBtHAA1P6w7lScT-36" source="_GfdGtISQYKUp6_XVA1W-99" target="_GfdGtISQYKUp6_XVA1W-100" edge="1">
          <mxGeometry relative="1" as="geometry">
            <Array as="points" />
          </mxGeometry>
        </mxCell>
        <mxCell id="_GfdGtISQYKUp6_XVA1W-135" value="384×10×10" style="curved=1;startArrow=none;endArrow=block;exitX=0.5;exitY=0;entryX=0.5;entryY=1;rounded=0;labelBackgroundColor=none;fontColor=default;exitDx=0;exitDy=0;entryDx=0;entryDy=0;strokeWidth=2;shadow=0;fontSize=16;fontFamily=Verdana;fixDash=0;snapToPoint=0;backgroundOutline=0;" parent="AOLd8nBtHAA1P6w7lScT-36" source="_GfdGtISQYKUp6_XVA1W-100" target="_GfdGtISQYKUp6_XVA1W-101" edge="1">
          <mxGeometry relative="1" as="geometry">
            <Array as="points" />
          </mxGeometry>
        </mxCell>
        <mxCell id="_GfdGtISQYKUp6_XVA1W-138" value="" style="curved=1;startArrow=none;endArrow=block;exitX=0.5;exitY=1;entryX=0.5;entryY=0;rounded=0;labelBackgroundColor=none;fontColor=default;strokeWidth=2;shadow=0;fontSize=16;fontFamily=Verdana;fixDash=0;snapToPoint=0;backgroundOutline=0;" parent="AOLd8nBtHAA1P6w7lScT-36" source="_GfdGtISQYKUp6_XVA1W-98" target="_GfdGtISQYKUp6_XVA1W-103" edge="1">
          <mxGeometry relative="1" as="geometry">
            <Array as="points" />
          </mxGeometry>
        </mxCell>
        <mxCell id="_GfdGtISQYKUp6_XVA1W-140" value="" style="curved=1;startArrow=none;endArrow=block;exitX=0.5;exitY=1;entryX=0.5;entryY=0;rounded=0;labelBackgroundColor=none;fontColor=default;strokeWidth=2;shadow=0;fontSize=16;fontFamily=Verdana;fixDash=0;snapToPoint=0;backgroundOutline=0;" parent="AOLd8nBtHAA1P6w7lScT-36" source="_GfdGtISQYKUp6_XVA1W-103" target="_GfdGtISQYKUp6_XVA1W-104" edge="1">
          <mxGeometry relative="1" as="geometry">
            <Array as="points" />
          </mxGeometry>
        </mxCell>
        <mxCell id="AOLd8nBtHAA1P6w7lScT-7" value="Upsample×2" style="whiteSpace=wrap;strokeWidth=2;labelBackgroundColor=none;rounded=0;shadow=0;fontSize=16;fontFamily=Verdana;fixDash=0;snapToPoint=0;backgroundOutline=0;" vertex="1" parent="AOLd8nBtHAA1P6w7lScT-36">
          <mxGeometry x="685" y="713" width="147" height="54" as="geometry" />
        </mxCell>
        <mxCell id="AOLd8nBtHAA1P6w7lScT-8" value="Concat: 256+40" style="whiteSpace=wrap;strokeWidth=2;labelBackgroundColor=none;rounded=0;shadow=0;fontSize=16;fontFamily=Verdana;fixDash=0;snapToPoint=0;backgroundOutline=0;" vertex="1" parent="AOLd8nBtHAA1P6w7lScT-36">
          <mxGeometry x="673" y="801" width="171" height="54" as="geometry" />
        </mxCell>
        <mxCell id="AOLd8nBtHAA1P6w7lScT-17" style="edgeStyle=orthogonalEdgeStyle;rounded=0;orthogonalLoop=1;jettySize=auto;html=1;exitX=1;exitY=0.5;exitDx=0;exitDy=0;entryX=0;entryY=0.5;entryDx=0;entryDy=0;strokeWidth=2;labelBackgroundColor=none;fontColor=default;" edge="1" parent="AOLd8nBtHAA1P6w7lScT-36" source="AOLd8nBtHAA1P6w7lScT-9" target="AOLd8nBtHAA1P6w7lScT-12">
          <mxGeometry relative="1" as="geometry" />
        </mxCell>
        <mxCell id="AOLd8nBtHAA1P6w7lScT-20" value="&lt;span style=&quot;font-family: Verdana; font-size: 16px;&quot;&gt;64×80×8&lt;/span&gt;&lt;br style=&quot;padding: 0px; margin: 0px; font-family: Verdana; font-size: 16px;&quot;&gt;&lt;span style=&quot;font-family: Verdana; font-size: 16px;&quot;&gt;0&lt;/span&gt;" style="edgeLabel;html=1;align=center;verticalAlign=middle;resizable=0;points=[];labelBackgroundColor=none;rounded=0;" vertex="1" connectable="0" parent="AOLd8nBtHAA1P6w7lScT-17">
          <mxGeometry x="-0.0423" y="-3" relative="1" as="geometry">
            <mxPoint x="-1" as="offset" />
          </mxGeometry>
        </mxCell>
        <mxCell id="AOLd8nBtHAA1P6w7lScT-29" style="edgeStyle=orthogonalEdgeStyle;rounded=0;orthogonalLoop=1;jettySize=auto;html=1;exitX=1;exitY=0.5;exitDx=0;exitDy=0;entryX=0.5;entryY=0;entryDx=0;entryDy=0;strokeWidth=2;labelBackgroundColor=none;fontColor=default;" edge="1" parent="AOLd8nBtHAA1P6w7lScT-36" source="AOLd8nBtHAA1P6w7lScT-9" target="AOLd8nBtHAA1P6w7lScT-25">
          <mxGeometry relative="1" as="geometry">
            <Array as="points">
              <mxPoint x="1093" y="912" />
              <mxPoint x="1093" y="851" />
            </Array>
          </mxGeometry>
        </mxCell>
        <mxCell id="AOLd8nBtHAA1P6w7lScT-30" value="&lt;span style=&quot;font-family: Verdana; font-size: 16px;&quot;&gt;64×80×8&lt;/span&gt;&lt;br style=&quot;padding: 0px; margin: 0px; font-family: Verdana; font-size: 16px;&quot;&gt;&lt;span style=&quot;font-family: Verdana; font-size: 16px;&quot;&gt;0&lt;/span&gt;" style="edgeLabel;html=1;align=center;verticalAlign=middle;resizable=0;points=[];labelBackgroundColor=none;rounded=0;" vertex="1" connectable="0" parent="AOLd8nBtHAA1P6w7lScT-29">
          <mxGeometry x="0.7268" y="-1" relative="1" as="geometry">
            <mxPoint x="-6" y="-19" as="offset" />
          </mxGeometry>
        </mxCell>
        <mxCell id="AOLd8nBtHAA1P6w7lScT-9" value="C2f: 296→128" style="whiteSpace=wrap;strokeWidth=2;labelBackgroundColor=none;rounded=0;shadow=0;fontSize=16;fontFamily=Verdana;fixDash=0;snapToPoint=0;backgroundOutline=0;" vertex="1" parent="AOLd8nBtHAA1P6w7lScT-36">
          <mxGeometry x="678" y="885" width="161" height="54" as="geometry" />
        </mxCell>
        <mxCell id="AOLd8nBtHAA1P6w7lScT-10" value="64×80×8&#xa;0" style="curved=1;startArrow=none;endArrow=block;exitX=0.5;exitY=1;entryX=0.5;entryY=0;rounded=0;labelBackgroundColor=none;fontColor=default;entryDx=0;entryDy=0;strokeWidth=2;shadow=0;fontSize=16;fontFamily=Verdana;fixDash=0;snapToPoint=0;backgroundOutline=0;" edge="1" parent="AOLd8nBtHAA1P6w7lScT-36" source="AOLd8nBtHAA1P6w7lScT-7" target="AOLd8nBtHAA1P6w7lScT-8">
          <mxGeometry x="0.4776" y="70" relative="1" as="geometry">
            <Array as="points" />
            <mxPoint as="offset" />
          </mxGeometry>
        </mxCell>
        <mxCell id="AOLd8nBtHAA1P6w7lScT-11" value="80×80×8&#xa;0" style="curved=1;startArrow=none;endArrow=block;exitX=0.5;exitY=0.99;entryX=0.5;entryY=0;rounded=0;labelBackgroundColor=none;fontColor=default;strokeWidth=2;shadow=0;fontSize=16;fontFamily=Verdana;fixDash=0;snapToPoint=0;backgroundOutline=0;" edge="1" parent="AOLd8nBtHAA1P6w7lScT-36" source="AOLd8nBtHAA1P6w7lScT-8" target="AOLd8nBtHAA1P6w7lScT-9">
          <mxGeometry x="-0.3341" y="-90" relative="1" as="geometry">
            <Array as="points" />
            <mxPoint as="offset" />
          </mxGeometry>
        </mxCell>
        <mxCell id="AOLd8nBtHAA1P6w7lScT-12" value="Conv: s=2" style="whiteSpace=wrap;strokeWidth=2;labelBackgroundColor=none;rounded=0;shadow=0;fontSize=16;fontFamily=Verdana;fixDash=0;snapToPoint=0;backgroundOutline=0;" vertex="1" parent="AOLd8nBtHAA1P6w7lScT-36">
          <mxGeometry x="951" y="853" width="129" height="54" as="geometry" />
        </mxCell>
        <mxCell id="AOLd8nBtHAA1P6w7lScT-13" value="Concat: 64+128" style="whiteSpace=wrap;strokeWidth=2;labelBackgroundColor=none;rounded=0;shadow=0;fontSize=16;fontFamily=Verdana;fixDash=0;snapToPoint=0;backgroundOutline=0;" vertex="1" parent="AOLd8nBtHAA1P6w7lScT-36">
          <mxGeometry x="930" y="764" width="171" height="54" as="geometry" />
        </mxCell>
        <mxCell id="AOLd8nBtHAA1P6w7lScT-15" value="84×40×40" style="curved=1;startArrow=none;endArrow=block;exitX=0.5;exitY=0;entryX=0.5;entryY=1;rounded=0;labelBackgroundColor=none;fontColor=default;exitDx=0;exitDy=0;entryDx=0;entryDy=0;strokeWidth=2;shadow=0;fontSize=16;fontFamily=Verdana;fixDash=0;snapToPoint=0;backgroundOutline=0;" edge="1" parent="AOLd8nBtHAA1P6w7lScT-36" source="AOLd8nBtHAA1P6w7lScT-12" target="AOLd8nBtHAA1P6w7lScT-13">
          <mxGeometry relative="1" as="geometry">
            <Array as="points" />
          </mxGeometry>
        </mxCell>
        <mxCell id="AOLd8nBtHAA1P6w7lScT-16" value="144×40×4&#xa;0" style="curved=1;startArrow=none;endArrow=block;exitX=0.5;exitY=0;entryX=0.5;entryY=1;rounded=0;labelBackgroundColor=none;fontColor=default;exitDx=0;exitDy=0;entryDx=0;entryDy=0;strokeWidth=2;shadow=0;fontSize=16;fontFamily=Verdana;fixDash=0;snapToPoint=0;backgroundOutline=0;spacingRight=-1;" edge="1" parent="AOLd8nBtHAA1P6w7lScT-36" source="AOLd8nBtHAA1P6w7lScT-13" target="AOLd8nBtHAA1P6w7lScT-14">
          <mxGeometry x="-0.3061" y="-67" relative="1" as="geometry">
            <Array as="points" />
            <mxPoint as="offset" />
          </mxGeometry>
        </mxCell>
        <mxCell id="AOLd8nBtHAA1P6w7lScT-22" value="" style="edgeStyle=orthogonalEdgeStyle;rounded=0;orthogonalLoop=1;jettySize=auto;html=1;exitX=1;exitY=0.5;exitDx=0;exitDy=0;entryX=0;entryY=0.5;entryDx=0;entryDy=0;fontColor=default;fontSize=16;strokeWidth=2;labelBackgroundColor=none;" edge="1" parent="AOLd8nBtHAA1P6w7lScT-36" source="_GfdGtISQYKUp6_XVA1W-93" target="AOLd8nBtHAA1P6w7lScT-13">
          <mxGeometry relative="1" as="geometry">
            <mxPoint x="820" y="950" as="sourcePoint" />
            <mxPoint x="1188" y="676" as="targetPoint" />
          </mxGeometry>
        </mxCell>
        <mxCell id="AOLd8nBtHAA1P6w7lScT-24" value="&lt;span style=&quot;font-family: Verdana; font-size: 16px;&quot;&gt;64×40×40&lt;/span&gt;" style="edgeLabel;html=1;align=center;verticalAlign=middle;resizable=0;points=[];labelBackgroundColor=none;rounded=0;" vertex="1" connectable="0" parent="AOLd8nBtHAA1P6w7lScT-22">
          <mxGeometry x="0.0115" y="3" relative="1" as="geometry">
            <mxPoint as="offset" />
          </mxGeometry>
        </mxCell>
        <mxCell id="AOLd8nBtHAA1P6w7lScT-14" value="C2f: 192→128" style="whiteSpace=wrap;strokeWidth=2;labelBackgroundColor=none;rounded=0;shadow=0;fontSize=16;fontFamily=Verdana;fixDash=0;snapToPoint=0;backgroundOutline=0;" vertex="1" parent="AOLd8nBtHAA1P6w7lScT-36">
          <mxGeometry x="935" y="679" width="161" height="54" as="geometry" />
        </mxCell>
        <mxCell id="AOLd8nBtHAA1P6w7lScT-25" value="P2/4&#xa; Output" style="whiteSpace=wrap;strokeWidth=2;labelBackgroundColor=none;rounded=0;direction=north;shadow=0;fontSize=16;fontFamily=Verdana;fixDash=0;snapToPoint=0;backgroundOutline=0;" vertex="1" parent="AOLd8nBtHAA1P6w7lScT-36">
          <mxGeometry x="1190.05" y="776.5" width="54" height="149" as="geometry" />
        </mxCell>
        <mxCell id="AOLd8nBtHAA1P6w7lScT-31" value="" style="verticalLabelPosition=bottom;verticalAlign=top;html=1;shape=mxgraph.basic.polygon;polyCoords=[[0,0],[1,0],[1,0.25],[1,0.75],[1,1],[0,0.99],[0,0.75],[0,0]];polyline=1;fillColor=none;dashed=1;strokeWidth=4;labelBackgroundColor=none;rounded=0;strokeColor=#FF3333;" vertex="1" parent="AOLd8nBtHAA1P6w7lScT-36">
          <mxGeometry y="80" width="622" height="830" as="geometry" />
        </mxCell>
        <mxCell id="AOLd8nBtHAA1P6w7lScT-32" value="&lt;font style=&quot;font-size: 34px; color: rgb(255, 51, 51);&quot;&gt;backbone&lt;/font&gt;" style="text;html=1;align=center;verticalAlign=middle;whiteSpace=wrap;rounded=0;labelBackgroundColor=none;" vertex="1" parent="AOLd8nBtHAA1P6w7lScT-36">
          <mxGeometry x="55" y="166" width="60" height="30" as="geometry" />
        </mxCell>
        <mxCell id="AOLd8nBtHAA1P6w7lScT-33" style="edgeStyle=orthogonalEdgeStyle;rounded=0;orthogonalLoop=1;jettySize=auto;html=1;exitX=0.5;exitY=1;exitDx=0;exitDy=0;entryX=0.517;entryY=0.587;entryDx=0;entryDy=0;entryPerimeter=0;labelBackgroundColor=none;fontColor=default;" edge="1" parent="AOLd8nBtHAA1P6w7lScT-36" source="AOLd8nBtHAA1P6w7lScT-32" target="AOLd8nBtHAA1P6w7lScT-32">
          <mxGeometry relative="1" as="geometry" />
        </mxCell>
        <mxCell id="AOLd8nBtHAA1P6w7lScT-34" value="" style="verticalLabelPosition=bottom;verticalAlign=top;html=1;shape=mxgraph.basic.polygon;polyCoords=[[0,0],[0.75,0],[1,0],[1,0.75],[1,1],[0,1],[0,0.75],[0,0]];polyline=1;fillColor=none;dashed=1;strokeWidth=5;labelBackgroundColor=none;rounded=0;strokeColor=#00FF80;" vertex="1" parent="AOLd8nBtHAA1P6w7lScT-36">
          <mxGeometry x="652" y="72" width="489" height="900" as="geometry" />
        </mxCell>
        <mxCell id="AOLd8nBtHAA1P6w7lScT-35" value="&lt;font style=&quot;font-size: 30px; color: rgb(0, 204, 0);&quot;&gt;head&lt;/font&gt;" style="text;html=1;align=center;verticalAlign=middle;whiteSpace=wrap;rounded=0;labelBackgroundColor=none;" vertex="1" parent="AOLd8nBtHAA1P6w7lScT-36">
          <mxGeometry x="673" y="84" width="60" height="30" as="geometry" />
        </mxCell>
      </root>
    </mxGraphModel>
  </diagram>
</mxfile>
